<svg width="44" height="44" viewBox="0 0 44 44" fill="none" xmlns="http://www.w3.org/2000/svg">
<rect x="0.5" y="0.5" width="43" height="43" rx="9.5" stroke="#F7F8FA" stroke-opacity="0.1"/>
<g opacity="0.8">
<path d="M25.0784 12.0602C25.2884 12.0602 25.4984 12.0602 25.9184 12.0602V15.2102C25.7084 15.2102 25.2884 15.2102 24.8684 15.2102C24.4484 15.2102 24.0284 15.2102 23.8184 15.4202C23.6084 15.6302 23.6084 15.8402 23.6084 16.3302C23.6084 16.7502 23.6084 17.0302 23.6084 17.4502H25.9184V20.1102H23.6084V31.6602H20.0384V20.0402H18.1484V17.3802H20.0384V16.4702C20.0384 14.9302 20.2484 13.8102 20.6684 13.3202C21.2984 12.4102 22.5584 11.9902 24.4484 11.9902C24.6584 12.0602 24.8684 12.0602 25.0784 12.0602Z" fill="#F7F8FA"/>
</g>
</svg>
