<svg width="35" height="35" viewBox="0 0 35 35" fill="none" xmlns="http://www.w3.org/2000/svg">
<g clip-path="url(#clip0_416_1166)">
<path d="M17.5 0.5C26.8888 0.5 34.5 8.11116 34.5 17.5C34.5 26.8889 26.8888 34.5 17.5 34.5C8.11116 34.5 0.5 26.8889 0.5 17.5C0.500015 8.11116 8.11117 0.5 17.5 0.5Z" stroke="#1D1E21" stroke-opacity="0.05"/>
<path d="M16.8329 18.5917C16.7548 18.5142 16.6928 18.4221 16.6505 18.3205C16.6082 18.219 16.5864 18.11 16.5864 18C16.5864 17.89 16.6082 17.7811 16.6505 17.6795C16.6928 17.578 16.7548 17.4858 16.8329 17.4084L20.6579 13.5917C20.736 13.5142 20.798 13.422 20.8403 13.3205C20.8826 13.2189 20.9044 13.11 20.9044 13C20.9044 12.89 20.8826 12.7811 20.8403 12.6795C20.798 12.578 20.736 12.4858 20.6579 12.4083C20.5018 12.2531 20.2905 12.166 20.0704 12.166C19.8502 12.166 19.639 12.2531 19.4829 12.4083L15.6579 16.2334C15.1897 16.7021 14.9268 17.3375 14.9268 18C14.9268 18.6625 15.1897 19.2979 15.6579 19.7667L19.4829 23.5917C19.6381 23.7457 19.8476 23.8324 20.0662 23.8334C20.1759 23.834 20.2846 23.813 20.3861 23.7715C20.4877 23.73 20.58 23.6689 20.6579 23.5917C20.736 23.5142 20.798 23.4221 20.8403 23.3205C20.8826 23.219 20.9044 23.11 20.9044 23C20.9044 22.89 20.8826 22.7811 20.8403 22.6795C20.798 22.578 20.736 22.4858 20.6579 22.4084L16.8329 18.5917Z" fill="#1D1E21" fill-opacity="0.5"/>
</g>
<defs>
<clipPath id="clip0_416_1166">
<rect width="35" height="35.0001" fill="white"/>
</clipPath>
</defs>
</svg>
