<svg width="35" height="35" viewBox="0 0 35 35" fill="none" xmlns="http://www.w3.org/2000/svg">
<path d="M17.5 0.5C26.8888 0.5 34.5 8.11116 34.5 17.5C34.5 26.8889 26.8888 34.5 17.5 34.5C8.11116 34.5 0.5 26.8889 0.5 17.5C0.500015 8.11116 8.11117 0.5 17.5 0.5Z" stroke="#1D1E21" stroke-opacity="0.2"/>
<path d="M22.1671 18.5917C22.2452 18.5142 22.3072 18.4221 22.3495 18.3205C22.3918 18.219 22.4136 18.11 22.4136 18C22.4136 17.89 22.3918 17.7811 22.3495 17.6795C22.3072 17.578 22.2452 17.4858 22.1671 17.4084L18.3421 13.5917C18.264 13.5142 18.202 13.422 18.1597 13.3205C18.1174 13.2189 18.0956 13.11 18.0956 13C18.0956 12.89 18.1174 12.7811 18.1597 12.6795C18.202 12.578 18.264 12.4858 18.3421 12.4083C18.4982 12.2531 18.7095 12.166 18.9296 12.166C19.1498 12.166 19.361 12.2531 19.5171 12.4083L23.3421 16.2334C23.8103 16.7021 24.0732 17.3375 24.0732 18C24.0732 18.6625 23.8103 19.2979 23.3421 19.7667L19.5171 23.5917C19.3619 23.7457 19.1524 23.8324 18.9338 23.8334C18.8241 23.834 18.7154 23.813 18.6139 23.7715C18.5123 23.73 18.42 23.6689 18.3421 23.5917C18.264 23.5142 18.202 23.4221 18.1597 23.3205C18.1174 23.219 18.0956 23.11 18.0956 23C18.0956 22.89 18.1174 22.7811 18.1597 22.6795C18.202 22.578 18.264 22.4858 18.3421 22.4084L22.1671 18.5917Z" fill="#1D1E21"/>
<path d="M16.1671 18.5917C16.2452 18.5142 16.3072 18.4221 16.3495 18.3205C16.3918 18.219 16.4136 18.11 16.4136 18C16.4136 17.89 16.3918 17.7811 16.3495 17.6795C16.3072 17.578 16.2452 17.4858 16.1671 17.4084L12.3421 13.5917C12.264 13.5142 12.202 13.422 12.1597 13.3205C12.1174 13.2189 12.0956 13.11 12.0956 13C12.0956 12.89 12.1174 12.7811 12.1597 12.6795C12.202 12.578 12.264 12.4858 12.3421 12.4083C12.4982 12.2531 12.7095 12.166 12.9296 12.166C13.1498 12.166 13.361 12.2531 13.5171 12.4083L17.3421 16.2334C17.8103 16.7021 18.0732 17.3375 18.0732 18C18.0732 18.6625 17.8103 19.2979 17.3421 19.7667L13.5171 23.5917C13.3619 23.7457 13.1524 23.8324 12.9338 23.8334C12.8241 23.834 12.7154 23.813 12.6139 23.7715C12.5123 23.73 12.42 23.6689 12.3421 23.5917C12.264 23.5142 12.202 23.4221 12.1597 23.3205C12.1174 23.219 12.0956 23.11 12.0956 23C12.0956 22.89 12.1174 22.7811 12.1597 22.6795C12.202 22.578 12.264 22.4858 12.3421 22.4084L16.1671 18.5917Z" fill="#1D1E21"/>
</svg>
