<svg width="35" height="35" viewBox="0 0 35 35" fill="none" xmlns="http://www.w3.org/2000/svg">
<path d="M17.5 0.5C26.8888 0.5 34.5 8.11116 34.5 17.5C34.5 26.8889 26.8888 34.5 17.5 34.5C8.11116 34.5 0.5 26.8889 0.5 17.5C0.500015 8.11116 8.11117 0.5 17.5 0.5Z" stroke="#1D1E21" stroke-opacity="0.2"/>
<path d="M19.1671 18.5917C19.2452 18.5142 19.3072 18.422 19.3495 18.3205C19.3918 18.2189 19.4136 18.11 19.4136 18C19.4136 17.89 19.3918 17.7811 19.3495 17.6795C19.3072 17.578 19.2452 17.4858 19.1671 17.4083L15.3421 13.5917C15.264 13.5142 15.202 13.422 15.1597 13.3205C15.1174 13.2189 15.0956 13.11 15.0956 13C15.0956 12.89 15.1174 12.7811 15.1597 12.6795C15.202 12.578 15.264 12.4858 15.3421 12.4083C15.4982 12.2531 15.7095 12.166 15.9296 12.166C16.1498 12.166 16.361 12.2531 16.5171 12.4083L20.3421 16.2333C20.8103 16.7021 21.0732 17.3375 21.0732 18C21.0732 18.6625 20.8103 19.2979 20.3421 19.7667L16.5171 23.5917C16.3619 23.7456 16.1524 23.8324 15.9338 23.8334C15.8241 23.834 15.7154 23.813 15.6139 23.7715C15.5123 23.73 15.42 23.6689 15.3421 23.5917C15.264 23.5142 15.202 23.4221 15.1597 23.3205C15.1174 23.219 15.0956 23.11 15.0956 23C15.0956 22.89 15.1174 22.7811 15.1597 22.6795C15.202 22.578 15.264 22.4858 15.3421 22.4084L19.1671 18.5917Z" fill="#1D1E21"/>
</svg>
