<svg width="35" height="35" viewBox="0 0 35 35" fill="none" xmlns="http://www.w3.org/2000/svg">
<g clip-path="url(#clip0_416_1162)">
<path d="M17.5 0.5C26.8888 0.5 34.5 8.11116 34.5 17.5C34.5 26.8889 26.8888 34.5 17.5 34.5C8.11116 34.5 0.5 26.8889 0.5 17.5C0.500015 8.11116 8.11117 0.5 17.5 0.5Z" stroke="#1D1E21" stroke-opacity="0.05"/>
<path d="M13.8329 18.5917C13.7548 18.5142 13.6928 18.4221 13.6505 18.3205C13.6082 18.219 13.5864 18.11 13.5864 18C13.5864 17.89 13.6082 17.7811 13.6505 17.6795C13.6928 17.578 13.7548 17.4858 13.8329 17.4084L17.6579 13.5917C17.736 13.5142 17.798 13.422 17.8403 13.3205C17.8826 13.2189 17.9044 13.11 17.9044 13C17.9044 12.89 17.8826 12.7811 17.8403 12.6795C17.798 12.578 17.736 12.4858 17.6579 12.4083C17.5018 12.2531 17.2905 12.166 17.0704 12.166C16.8502 12.166 16.639 12.2531 16.4829 12.4083L12.6579 16.2334C12.1897 16.7021 11.9268 17.3375 11.9268 18C11.9268 18.6625 12.1897 19.2979 12.6579 19.7667L16.4829 23.5917C16.6381 23.7457 16.8476 23.8324 17.0662 23.8334C17.1759 23.834 17.2846 23.813 17.3861 23.7715C17.4877 23.73 17.58 23.6689 17.6579 23.5917C17.736 23.5142 17.798 23.4221 17.8403 23.3205C17.8826 23.219 17.9044 23.11 17.9044 23C17.9044 22.89 17.8826 22.7811 17.8403 22.6795C17.798 22.578 17.736 22.4858 17.6579 22.4084L13.8329 18.5917Z" fill="#1D1E21" fill-opacity="0.5"/>
<path d="M19.8329 18.5917C19.7548 18.5142 19.6928 18.4221 19.6505 18.3205C19.6082 18.219 19.5864 18.11 19.5864 18C19.5864 17.89 19.6082 17.7811 19.6505 17.6795C19.6928 17.578 19.7548 17.4858 19.8329 17.4084L23.6579 13.5917C23.736 13.5142 23.798 13.422 23.8403 13.3205C23.8826 13.2189 23.9044 13.11 23.9044 13C23.9044 12.89 23.8826 12.7811 23.8403 12.6795C23.798 12.578 23.736 12.4858 23.6579 12.4083C23.5018 12.2531 23.2905 12.166 23.0704 12.166C22.8502 12.166 22.639 12.2531 22.4829 12.4083L18.6579 16.2334C18.1897 16.7021 17.9268 17.3375 17.9268 18C17.9268 18.6625 18.1897 19.2979 18.6579 19.7667L22.4829 23.5917C22.6381 23.7457 22.8476 23.8324 23.0662 23.8334C23.1759 23.834 23.2846 23.813 23.3861 23.7715C23.4877 23.73 23.58 23.6689 23.6579 23.5917C23.736 23.5142 23.798 23.4221 23.8403 23.3205C23.8826 23.219 23.9044 23.11 23.9044 23C23.9044 22.89 23.8826 22.7811 23.8403 22.6795C23.798 22.578 23.736 22.4858 23.6579 22.4084L19.8329 18.5917Z" fill="#1D1E21" fill-opacity="0.5"/>
</g>
<defs>
<clipPath id="clip0_416_1162">
<rect width="35" height="35.0001" fill="white"/>
</clipPath>
</defs>
</svg>
