<svg width="44" height="44" viewBox="0 0 44 44" fill="none" xmlns="http://www.w3.org/2000/svg">
<rect x="0.5" y="0.5" width="43" height="43" rx="9.5" stroke="#F7F8FA" stroke-opacity="0.1"/>
<g opacity="0.8">
<path fill-rule="evenodd" clip-rule="evenodd" d="M29.2094 13.2494C28.0194 13.1794 25.5694 13.1094 21.8594 13.1094H21.3694C17.7994 13.1094 15.4194 13.1794 14.2294 13.3194C12.6194 13.4594 11.4994 13.8794 10.8694 14.4394C10.3094 14.9294 9.88938 15.8394 9.74938 17.0294C9.67938 17.7994 9.60938 19.4094 9.60938 21.8594V22.2094C9.60938 24.5194 9.67937 26.1294 9.81937 26.8994C10.0294 28.0194 10.3794 28.8594 11.0794 29.3494C11.7794 29.9094 12.9694 30.2594 14.6494 30.3994C15.8394 30.4694 18.2894 30.5394 21.9994 30.5394H22.4894C26.0594 30.5394 28.4394 30.4694 29.6294 30.3294C31.2394 30.1894 32.3594 29.7694 32.9894 29.2094C33.5494 28.7194 33.9694 27.8094 34.1094 26.6194C34.1794 25.8494 34.2494 24.2394 34.2494 21.7894V21.4394C34.2494 19.1294 34.1794 17.5194 34.0394 16.7494C33.8294 15.6294 33.4794 14.7894 32.7794 14.2994C32.0794 13.7394 30.8894 13.3894 29.2094 13.2494ZM26.4794 21.8594L18.7794 26.4794V17.2394L26.4794 21.8594Z" fill="#F7F8FA"/>
</g>
</svg>
