<svg xmlns="http://www.w3.org/2000/svg" style="display: none;">

  <symbol id="icon-cart" viewBox="0 0 16 16">
    <g>
      <path d="M6.0026 14.6663C6.37079 14.6663 6.66927 14.3679 6.66927 13.9997C6.66927 13.6315 6.37079 13.333 6.0026 13.333C5.63441 13.333 5.33594 13.6315 5.33594 13.9997C5.33594 14.3679 5.63441 14.6663 6.0026 14.6663Z" stroke="currentColor" stroke-width="1.5" stroke-linecap="round" stroke-linejoin="round"/>
      <path d="M13.3307 14.6663C13.6989 14.6663 13.9974 14.3679 13.9974 13.9997C13.9974 13.6315 13.6989 13.333 13.3307 13.333C12.9625 13.333 12.6641 13.6315 12.6641 13.9997C12.6641 14.3679 12.9625 14.6663 13.3307 14.6663Z" stroke="currentColor" stroke-width="1.5" stroke-linecap="round" stroke-linejoin="round"/>
      <path d="M0.664062 0.666992H3.33073L5.1174 9.59366C5.17836 9.90059 5.34533 10.1763 5.58909 10.3725C5.83285 10.5688 6.13786 10.673 6.45073 10.667H12.9307C13.2436 10.673 13.5486 10.5688 13.7924 10.3725C14.0361 10.1763 14.2031 9.90059 14.2641 9.59366L15.3307 4.00033H3.9974" stroke="currentColor" stroke-width="1.5" stroke-linecap="round" stroke-linejoin="round"/>
    </g>
  </symbol>

  <symbol id="icon-facebook" viewBox="0 0 44 44">
    <path d="M25.0784 12.0602C25.2884 12.0602 25.4984 12.0602 25.9184 12.0602V15.2102C25.7084 15.2102 25.2884 15.2102 24.8684 15.2102C24.4484 15.2102 24.0284 15.2102 23.8184 15.4202C23.6084 15.6302 23.6084 15.8402 23.6084 16.3302C23.6084 16.7502 23.6084 17.0302 23.6084 17.4502H25.9184V20.1102H23.6084V31.6602H20.0384V20.0402H18.1484V17.3802H20.0384V16.4702C20.0384 14.9302 20.2484 13.8102 20.6684 13.3202C21.2984 12.4102 22.5584 11.9902 24.4484 11.9902C24.6584 12.0602 24.8684 12.0602 25.0784 12.0602Z" fill="currentColor"/>
  </symbol>

  <symbol id="icon-instagram" viewBox="0 0 44 44">
    <path d="M33.1286 17.4113C33.115 16.4712 32.9408 15.5386 32.6074 14.6594C32.0241 13.158 30.8361 11.9708 29.3323 11.3897C28.4628 11.0631 27.5436 10.888 26.6131 10.8681C25.4165 10.8147 25.0371 10.7998 21.9995 10.7998C18.962 10.7998 18.5726 10.7998 17.3847 10.8681C16.4555 10.888 15.5363 11.0631 14.6668 11.3897C13.1629 11.9708 11.9738 13.158 11.3916 14.6594C11.0645 15.5274 10.8879 16.4451 10.8704 17.3728C10.817 18.5687 10.8008 18.9474 10.8008 21.9799C10.8008 25.0125 10.8008 25.3999 10.8704 26.5871C10.8891 27.516 11.0645 28.4325 11.3916 29.303C11.975 30.8031 13.1629 31.9903 14.668 32.5714C15.5338 32.9092 16.453 33.1005 17.3859 33.1303C18.5838 33.1837 18.9632 33.1998 22.0008 33.1998C25.0384 33.1998 25.4277 33.1998 26.6156 33.1303C27.5448 33.1116 28.464 32.9365 29.3348 32.6099C30.8386 32.0275 32.0266 30.8403 32.6099 29.3402C32.9371 28.4709 33.1125 27.5545 33.1311 26.6244C33.1846 25.4297 33.2008 25.051 33.2008 22.0172C33.1983 18.9847 33.1983 18.5997 33.1286 17.4113ZM21.9921 27.7147C18.8152 27.7147 16.2416 25.1453 16.2416 21.9737C16.2416 18.8021 18.8152 16.2328 21.9921 16.2328C25.1665 16.2328 27.7426 18.8021 27.7426 21.9737C27.7426 25.1453 25.1665 27.7147 21.9921 27.7147ZM27.9715 17.3591C27.2289 17.3591 26.6305 16.7606 26.6305 16.0204C26.6305 15.2803 27.2289 14.6817 27.9715 14.6817C28.7116 14.6817 29.3111 15.2803 29.3111 16.0204C29.3111 16.7606 28.7116 17.3591 27.9715 17.3591Z" fill="currentColor"/>
    <path d="M21.9918 25.4787C23.9267 25.4787 25.4953 23.9101 25.4953 21.9752C25.4953 20.0403 23.9267 18.4717 21.9918 18.4717C20.0569 18.4717 18.4883 20.0403 18.4883 21.9752C18.4883 23.9101 20.0569 25.4787 21.9918 25.4787Z" fill="currentColor"/>
  </symbol>

  <symbol id="icon-location" viewBox="0 0 18 18">
    <path d="M15.75 7.5C15.75 12.75 9 17.25 9 17.25C9 17.25 2.25 12.75 2.25 7.5C2.25 5.70979 2.96116 3.9929 4.22703 2.72703C5.4929 1.46116 7.20979 0.75 9 0.75C10.7902 0.75 12.5071 1.46116 13.773 2.72703C15.0388 3.9929 15.75 5.70979 15.75 7.5Z" stroke="currentColor" stroke-width="1.5" stroke-linecap="round" stroke-linejoin="round"/>
    <path d="M9 9.75C10.2426 9.75 11.25 8.74264 11.25 7.5C11.25 6.25736 10.2426 5.25 9 5.25C7.75736 5.25 6.75 6.25736 6.75 7.5C6.75 8.74264 7.75736 9.75 9 9.75Z" stroke="currentColor" stroke-width="1.5" stroke-linecap="round" stroke-linejoin="round"/>
  </symbol>

  <symbol id="logo-full" viewBox="0 0 180 32">
    <rect width="32" height="32" rx="4" fill="#59B17A"/>
    <rect x="13" y="10" width="6" height="12" fill="white" rx="1"/>
    <rect x="10" y="13" width="12" height="6" fill="white" rx="1"/>
    <text x="42" y="22" font-family="Inter, Arial, sans-serif" font-size="18" font-weight="600" fill="currentColor">
      E-Pharmacy
    </text>
  </symbol>

 <symbol id="logo-mark" viewBox="0 0 32 32">
    <rect width="32" height="32" rx="4" fill="#59B17A"/>
    <rect x="13" y="10" width="6" height="12" fill="white" rx="1"/>
    <rect x="10" y="13" width="12" height="6" fill="white" rx="1"/>
  </symbol>

</svg>
